<svg xmlns="http://www.w3.org/2000/svg" width="89.269" height="87.039" viewBox="0 0 89.269 87.039">
    <path id="prefix__Icon_awesome-github" d="M29.858 70.646c0 .36-.414.648-.936.648-.594.054-1.008-.234-1.008-.648 0-.36.414-.648.936-.648.54-.054 1.008.234 1.008.648zm-5.6-.81c-.126.36.234.774.774.882a.844.844 0 0 0 1.116-.36c.108-.36-.234-.774-.774-.936a.924.924 0 0 0-1.113.414zm7.955-.306c-.522.126-.882.468-.828.882.054.36.522.594 1.062.468.522-.126.882-.468.828-.828-.051-.342-.537-.576-1.059-.522zM44.059.563C19.1.563 0 19.514 0 44.477a45.122 45.122 0 0 0 30.506 43.051c2.3.414 3.114-1.008 3.114-2.178 0-1.116-.054-7.271-.054-11.051 0 0-12.6 2.7-15.244-5.363 0 0-2.052-5.237-5-6.587 0 0-4.121-2.826.288-2.772a9.5 9.5 0 0 1 6.947 4.643c3.942 6.947 10.547 4.949 13.12 3.762a10 10 0 0 1 2.88-6.065C26.493 60.8 16.342 59.343 16.342 42.029c0-4.949 1.368-7.433 4.247-10.6a17 17 0 0 1 .468-12.22c3.762-1.17 12.418 4.859 12.418 4.859a42.518 42.518 0 0 1 22.605 0s8.658-6.048 12.42-4.86a17 17 0 0 1 .468 12.22c2.88 3.186 4.643 5.669 4.643 10.6 0 17.368-10.6 18.754-20.661 19.888 1.656 1.422 3.06 4.121 3.06 8.351 0 6.065-.054 13.57-.054 15.046 0 1.17.828 2.592 3.114 2.178 18-5.975 30.2-23.055 30.2-43.015C89.269 19.514 69.022.563 44.059.563zM17.494 62.637c-.234.18-.18.594.126.936.288.288.7.414.936.18.234-.18.18-.594-.126-.936-.288-.288-.702-.417-.936-.18zm-1.944-1.458c-.126.234.054.522.414.7a.536.536 0 0 0 .774-.126c.126-.234-.054-.522-.414-.7-.36-.108-.648-.053-.774.126zm5.831 6.407c-.288.234-.18.774.234 1.116.414.414.936.468 1.17.18.234-.234.126-.774-.234-1.116-.396-.414-.936-.466-1.17-.18zm-2.051-2.645c-.288.18-.288.648 0 1.062s.774.594 1.008.414a.821.821 0 0 0 0-1.116c-.252-.414-.72-.594-1.008-.36z" data-name="Icon awesome-github" transform="translate(0 -.563)" style="fill:#fff"/>
</svg>
