<svg xmlns="http://www.w3.org/2000/svg" width="89.269" height="89.249" viewBox="0 0 89.269 89.249">
    <path id="prefix__Icon_awesome-instagram" d="M44.639 23.98a22.882 22.882 0 1 0 22.883 22.882A22.846 22.846 0 0 0 44.639 23.98zm0 37.759a14.877 14.877 0 1 1 14.877-14.877 14.9 14.9 0 0 1-14.877 14.877zm29.156-38.695a5.337 5.337 0 1 1-5.337-5.337 5.325 5.325 0 0 1 5.337 5.337zm15.155 5.417c-.339-7.149-1.972-13.482-7.209-18.7-5.218-5.218-11.551-6.851-18.7-7.21-7.369-.418-29.454-.418-36.823 0-7.13.339-13.463 1.972-18.7 7.189S.667 21.291.308 28.441C-.11 35.809-.11 57.9.308 65.264c.339 7.149 1.972 13.482 7.209 18.7s11.551 6.851 18.7 7.209c7.369.418 29.454.418 36.823 0 7.149-.339 13.482-1.972 18.7-7.209 5.218-5.218 6.851-11.551 7.209-18.7.418-7.369.418-29.434 0-36.8zM79.431 73.17a15.061 15.061 0 0 1-8.484 8.484c-5.875 2.33-19.815 1.792-26.308 1.792s-20.453.518-26.308-1.792a15.061 15.061 0 0 1-8.483-8.484c-2.33-5.87-1.793-19.815-1.793-26.308S7.538 26.41 9.848 20.555a15.061 15.061 0 0 1 8.484-8.484c5.875-2.33 19.815-1.792 26.308-1.792s20.453-.518 26.308 1.792a15.061 15.061 0 0 1 8.484 8.484c2.33 5.875 1.792 19.815 1.792 26.308s.537 20.452-1.793 26.307z" data-name="Icon awesome-instagram" transform="translate(.005 -2.238)" style="fill:#fff"/>
</svg>
