<svg xmlns="http://www.w3.org/2000/svg" width="89.269" height="89.269" viewBox="0 0 89.269 89.269">
    <path id="prefix__Icon_awesome-medium" d="M0 2.25v89.269h89.269V2.25zm74.165 21.142l-4.782 4.583a1.4 1.4 0 0 0-.538 1.335v33.735a1.371 1.371 0 0 0 .538 1.335l4.683 4.583v1.016H50.553V69l4.842-4.7c.478-.478.478-.618.478-1.335V35.686L42.4 69.879h-1.81L24.908 35.686V58.6a3.151 3.151 0 0 0 .877 2.63l6.3 7.632v1.016H14.187v-1.015l6.3-7.632A3.051 3.051 0 0 0 21.3 58.6V32.1a2.275 2.275 0 0 0-.757-1.953l-5.6-6.755v-1.017h17.4L45.77 51.866 57.587 22.4h16.578z" data-name="Icon awesome-medium" transform="translate(0 -2.25)" style="fill:#fff"/>
</svg>
