<svg xmlns="http://www.w3.org/2000/svg" width="89.269" height="88.401" viewBox="0 0 89.269 88.401">
    <path id="prefix__Icon_simple-slack" d="M18.754 55.858a9.377 9.377 0 1 1-9.373-9.282h9.373v9.282zm4.728 0a9.377 9.377 0 0 1 18.754 0v23.254a9.377 9.377 0 0 1-18.754 0V55.858zm9.377-37.287a9.358 9.358 0 0 1-9.377-9.282 9.377 9.377 0 0 1 18.754 0v9.282zm0 4.682a9.286 9.286 0 1 1 0 18.572H9.381a9.286 9.286 0 1 1 0-18.572h23.477zm37.649 9.286a9.381 9.381 0 1 1 9.381 9.286h-9.381v-9.286zm-4.716 0a9.379 9.379 0 0 1-18.758 0V9.289a9.379 9.379 0 0 1 18.758 0zm-9.385 37.283a9.29 9.29 0 1 1-9.373 9.289v-9.289h9.373zm0-4.671a9.288 9.288 0 1 1 0-18.575h23.481a9.288 9.288 0 1 1 0 18.575z" data-name="Icon simple-slack" style="fill:#fff"/>
</svg>
