<svg width="318" height="320" xmlns="http://www.w3.org/2000/svg" xmlns:xlink="http://www.w3.org/1999/xlink" overflow="hidden"><defs><clipPath id="clip0"><rect x="-266" y="200" width="318" height="320"/></clipPath><clipPath id="clip1"><rect x="-266" y="201" width="317" height="318"/></clipPath><clipPath id="clip2"><rect x="-266" y="201" width="317" height="318"/></clipPath><clipPath id="clip3"><rect x="-266" y="201" width="317" height="318"/></clipPath></defs><g clip-path="url(#clip0)" transform="translate(266 -200)"><g clip-path="url(#clip1)"><g clip-path="url(#clip2)"><g clip-path="url(#clip3)"><path d="M317 60.1904C305.337 65.368 292.802 68.855 279.647 70.4268 293.08 62.383 303.395 49.6369 308.243 34.4473 295.682 41.8968 281.76 47.3122 266.94 50.2313 255.093 37.5909 238.173 29.6923 219.47 29.6923 177.48 29.6923 146.626 68.8682 156.109 109.537 102.074 106.829 54.1542 80.9407 22.0711 41.593 5.03237 70.8231 13.2347 109.061 42.1874 128.425 31.5415 128.081 21.5032 125.162 12.746 120.288 12.0328 150.416 33.6284 178.603 64.9057 184.877 55.7524 187.36 45.7272 187.941 35.5304 185.987 43.7988 211.822 67.8116 230.617 96.2887 231.146 68.9475 252.583 34.5002 262.159-2.34628e-14 258.091 28.781 276.543 62.9773 287.308 99.6965 287.308 220.447 287.308 288.668 185.326 284.547 93.8584 297.254 84.6786 308.283 73.227 317 60.1904Z" fill="#FFFFFF" fill-rule="nonzero" fill-opacity="1" transform="matrix(1 0 0 1.00315 -266 201)"/></g></g></g></g></svg>